<!-- Created with Inkscape (http://www.inkscape.org/) -->
<svg width="100%" height="100%" version="1.1" viewBox="0 0 172.88 33.331" xmlns="http://www.w3.org/2000/svg">
 <g transform="translate(-19.487 -53.694)">
  <path d="m151.01 56.29v22.044h3.7204v-6.684h1.3832l5.0576 6.684h4.3504l-6.3335-8.2526 5.7029-7.0366h-4.381l-4.5036 5.8499h-1.2759v-12.605zm-67.107 0.0209v3.0584h4.0779v-3.0584zm16.325 0v8.2812c-0.45619-0.60515-0.98643-1.0706-1.5916-1.3965-0.60515-0.32585-1.2848-0.48918-2.0389-0.48918-1.8713 0-3.3239 0.73127-4.3573 2.1929-1.0241 1.4617-1.5358 3.3836-1.5358 5.767v0.29336c0 2.2344 0.51172 4.0315 1.5358 5.3907 1.0334 1.3593 2.4767 2.0389 4.3294 2.0389 0.8379 0 1.5824-0.18184 2.2341-0.54492 0.6517-0.3724 1.215-0.90726 1.6898-1.6055l0.34911 1.8571h3.4772v-21.785zm-37.44 6.3955c-1.8713 0-3.3239 0.73127-4.3573 2.1929-1.0334 1.4617-1.5505 3.3836-1.5505 5.767v0.29336c0 2.2344 0.51705 4.0315 1.5505 5.3907 1.0334 1.3593 2.4761 2.0389 4.3287 2.0389 0.78204 0 1.4756-0.14875 2.0807-0.44667 0.60515-0.29792 1.1315-0.73099 1.5783-1.2989v1.3686c0 0.98686-0.26512 1.7128-0.79578 2.1783-0.52136 0.4655-1.3405 0.69823-2.4577 0.69823-0.77273 0-1.4947-0.07935-2.1651-0.23762-0.66101-0.14896-1.303-0.37244-1.9267-0.67036l-0.68429 3.0445c0.72618 0.36309 1.5176 0.64741 2.3741 0.85223 0.85652 0.21413 1.6664 0.32124 2.4299 0.32124 2.2996 0 4.0913-0.54018 5.3761-1.6201 1.2848-1.0706 1.9274-2.588 1.9274-4.5524v-15.04h-3.5051l-0.32124 1.9274c-0.45619-0.70756-1.0056-1.2524-1.648-1.6341-0.64239-0.38171-1.3868-0.5728-2.2341-0.5728zm18.126 0c-0.73549 0-1.3874 0.22348-1.9553 0.67036-0.5586 0.43757-1.0141 1.0525-1.3679 1.8438l-0.18187-2.2347h-3.7845v15.11h4.0639v-10.209c0.20482-0.45619 0.50232-0.80991 0.89334-1.0613 0.39102-0.25137 0.88956-0.37699 1.4947-0.37699l1.494 0.04182 0.43273-3.6166c-0.17689-0.04655-0.3534-0.08426-0.53029-0.11219-0.16758-0.03723-0.35404-0.05575-0.55886-0.05575zm34.079 0.05575c-1.0761 0-2.0239 0.19804-2.8438 0.5937-0.81985 0.39566-1.5014 0.95608-2.0445 1.6815l-0.2-1.9923h-3.4124v15.289h3.735v-11.22c0.30745-0.48986 0.7226-0.86719 1.2452-1.131 0.5329-0.27319 1.1788-0.40974 1.9372-0.40974 0.96333 0 1.6906 0.28282 2.1825 0.84805 0.50216 0.56523 0.75329 1.4933 0.75329 2.7839v9.1285h3.7357v-9.9055c0-0.0942-5e-3 -0.19322-0.0153-0.29685-0.0106-0.10362-0.0161-0.22592-0.0161-0.36723 0.24597-0.66885 0.64586-1.2015 1.1993-1.5971 0.55341-0.39566 1.2298-0.5937 2.0292-0.5937 0.97356 0 1.7015 0.27309 2.1832 0.81948 0.49191 0.53696 0.73725 1.4747 0.73725 2.8124v9.1285h3.7357v-9.1146c0-2.1667-0.48699-3.782-1.4606-4.8465-0.96333-1.0739-2.2799-1.6111-3.9504-1.6111-1.1273 0-2.1114 0.24008-2.9518 0.72052-0.84034 0.48045-1.5168 1.1444-2.0292 1.9923-0.38944-0.90436-0.97299-1.5826-1.7518-2.0348-0.77885-0.45218-1.7115-0.67802-2.7978-0.67802zm25.625 0c-1.9984 0-3.6227 0.46662-4.873 1.3992-1.24 0.93262-1.8243 2.0017-1.7525 3.2075l0.0153 0.08431 3.597-0.01394c0-0.59349 0.25112-1.0737 0.75328-1.4411 0.50216-0.37682 1.1786-0.56513 2.0292-0.56513 0.96331 0 1.6956 0.22584 2.1978 0.67802 0.51241 0.45218 0.76861 1.0786 0.76861 1.8794v1.3421h-2.9051c-2.3058 0-4.0942 0.41485-5.3649 1.2438-1.2708 0.81958-1.9058 1.9689-1.9058 3.4479 0 1.4319 0.46089 2.5573 1.3832 3.3769 0.93257 0.81958 2.2651 1.2299 3.997 1.2299 1.0351 0 1.9728-0.24078 2.8131-0.72123 0.84035-0.48986 1.511-1.0923 2.0132-1.8083 0.0307 0.3674 0.0873 0.7343 0.16933 1.1017 0.0923 0.3674 0.20474 0.74473 0.33797 1.131h3.7817c-0.20495-0.55581-0.35374-1.1214-0.44597-1.6961-0.0923-0.58407-0.13797-1.1917-0.13797-1.8229v-6.7962c0-1.6957-0.59442-2.9958-1.7832-3.9002-1.1888-0.90436-2.7514-1.3567-4.6883-1.3567zm33.203 0c-2.1623-0.0095-3.9304 0.71604-5.3036 2.1762-1.363 1.4507-2.0445 3.2971-2.0445 5.5391v0.56514c0 2.2421 0.68153 4.0696 2.0445 5.4827 1.3732 1.4037 3.2748 2.1058 5.7036 2.1058 1.363 0 2.5671-0.17477 3.6124-0.52332 1.0453-0.34856 1.8858-0.77696 2.5212-1.2857l-1.2146-2.2466c-0.63537 0.42392-1.3271 0.74878-2.0752 0.97487-0.73788 0.22609-1.6139 0.33936-2.6285 0.33936-1.363 0-2.3827-0.39157-3.0591-1.1735-0.67636-0.7819-1.0356-1.7992-1.0766-3.0521l0.0314-0.07037h10.284v-1.8515c0-2.1196-0.57409-3.8099-1.7219-5.0723-1.1478-1.2718-2.8389-1.9079-5.073-1.9079zm17.386 0c-0.86084 0-1.6244 0.22132-2.2905 0.66408-0.65588 0.44276-1.1937 1.055-1.6139 1.8369l-0.24598-2.218h-3.4131v15.289h3.7357v-10.627c0.26645-0.51813 0.64024-0.91803 1.1219-1.2006 0.49191-0.28262 1.1023-0.42438 1.8299-0.42438l1.5985 0.05645 0.44527-3.2075c-0.16397-0.04711-0.34324-0.08462-0.53795-0.11288-0.19473-0.03768-0.40449-0.05644-0.62994-0.05644zm-107.3 0.22369v15.11h4.0779v-15.11zm89.919 2.5316c1.0761 0 1.8599 0.3061 2.3518 0.91843 0.50218 0.60291 0.75329 1.3944 0.75329 2.3741v0.26828h-6.5022l-0.0307-0.07037c0.14349-1.0362 0.50711-1.875 1.0912-2.5156 0.58415-0.65001 1.3629-0.97487 2.3365-0.97487zm-110 0.35887c0.60515 0 1.1215 0.12632 1.5498 0.37768 0.43757 0.25137 0.78666 0.60972 1.0473 1.0752v6.5495c-0.26068 0.43757-0.60978 0.77278-1.0473 1.0055-0.42826 0.22344-0.95456 0.33518-1.5783 0.33518-1.0055 0-1.7314-0.37755-2.1783-1.1317-0.43757-0.76342-0.65642-1.8061-0.65642-3.1281v-0.29336c0-1.4244 0.2281-2.5788 0.68429-3.4633 0.45619-0.88445 1.1828-1.3268 2.179-1.3268zm33.823 0c0.57722 0 1.0797 0.13557 1.508 0.40556 0.43757 0.26068 0.79592 0.62828 1.0752 1.1031v6.4381c-0.2793 0.45618-0.63765 0.80528-1.0752 1.0473-0.43757 0.23275-0.9493 0.34912-1.5358 0.34912-1.0055 0-1.7321-0.37755-2.179-1.1317-0.44688-0.76342-0.67036-1.8061-0.67036-3.1281v-0.29336c0-1.4244 0.2281-2.5788 0.68429-3.4633 0.4655-0.88445 1.1968-1.3268 2.1929-1.3268zm42.743 5.6046h2.9664v2.2605c-0.24597 0.55581-0.7482 1.0502-1.5066 1.4836-0.7481 0.43334-1.5879 0.65015-2.5204 0.65015-0.77886 0-1.3784-0.16955-1.7985-0.50869-0.40992-0.34856-0.6153-0.81448-0.6153-1.3986 0-0.66885 0.30772-1.2487 0.9226-1.7386 0.61488-0.49928 1.4655-0.7484 2.5518-0.7484z" style="fill:#1c313a;font-variant-caps:normal;font-variant-east-asian:normal;font-variant-ligatures:normal;font-variant-numeric:normal"/>
  <path d="m40.801 53.694-16.993 4.5537a17.306 17.306 0 0 0-4.3207 7.4833l4.5486 16.974a17.306 17.306 0 0 0 7.4827 4.3202l16.975-4.548a17.306 17.306 0 0 0 4.3202-7.4827l-4.5537-16.995a17.306 17.306 0 0 0-7.4585-4.3052zm3.3264 2.8484 5.84 21.795-21.795 5.84-5.84-21.795zm-1.1617 2.0149-18.621 4.9894 4.9894 18.621 18.621-4.9894z" style="fill:#1c313a"/>
  <g transform="matrix(.89635 -.24018 .24018 .89635 -28.277 50.104)" style="fill:#7ecb20">
   <rect x="52.937" y="30.859" width="7.1772" height="7.1772" style="fill:#7ecb20"/>
   <rect x="62.43" y="30.859" width="7.1772" height="7.1772" style="fill:#e7ff8c"/>
  </g>
  <g transform="matrix(.89635 -.24018 .24018 .89635 -26.032 58.482)" style="fill:#7ecb20">
   <rect x="52.937" y="30.859" width="7.1772" height="7.1772" style="fill:#7ecb20"/>
   <rect x="62.43" y="30.859" width="7.1772" height="7.1772" style="fill:#7ecb20"/>
  </g>
 </g>
</svg>
