<!-- Created with Inkscape (http://www.inkscape.org/) -->
<svg width="100%" height="100%" version="1.1" viewBox="0 0 33.326 33.331" xmlns="http://www.w3.org/2000/svg">
 <g transform="translate(-19.487 -53.694)">
  <path d="m40.801 53.694-16.993 4.5537a17.306 17.306 0 0 0-4.3207 7.4833l4.5486 16.974a17.306 17.306 0 0 0 7.4827 4.3202l16.975-4.548a17.306 17.306 0 0 0 4.3202-7.4827l-4.5537-16.995a17.306 17.306 0 0 0-7.4585-4.3052zm3.3264 2.8484 5.84 21.795-21.795 5.84-5.84-21.795zm-1.1617 2.0149-18.621 4.9894 4.9894 18.621 18.621-4.9894z" style="fill:#2b2b2b"/>
  <g transform="matrix(.89635 -.24018 .24018 .89635 -28.277 50.104)" style="fill:#757575">
   <rect x="52.937" y="30.859" width="7.1772" height="7.1772" style="fill:#757575"/>
   <rect x="62.43" y="30.859" width="7.1772" height="7.1772" style="fill:#c5c5c5"/>
  </g>
  <g transform="matrix(.89635 -.24018 .24018 .89635 -26.032 58.482)" style="fill:#757575">
   <rect x="52.937" y="30.859" width="7.1772" height="7.1772" style="fill:#757575"/>
   <rect x="62.43" y="30.859" width="7.1772" height="7.1772" style="fill:#757575"/>
  </g>
 </g>
</svg>
